<svg width="35" height="35" viewBox="0 0 35 35" fill="none" xmlns="http://www.w3.org/2000/svg">
<path d="M32.0834 23.6107C32.0834 28.9191 28.9188 32.0837 23.6105 32.0837H21.8751C21.073 32.0837 20.4167 31.4274 20.4167 30.6253V22.2108C20.4167 21.817 20.7376 21.4816 21.1313 21.4816L23.698 21.4378C23.9022 21.4233 24.0772 21.2774 24.1209 21.0733L24.6314 18.2878C24.6751 18.0253 24.4709 17.7774 24.1938 17.7774L21.0876 17.8212C20.6792 17.8212 20.3584 17.5003 20.3438 17.1066L20.2855 13.5337C20.2855 13.3003 20.4751 13.0962 20.723 13.0962L24.223 13.0378C24.4709 13.0378 24.6605 12.8483 24.6605 12.6003L24.6022 9.10031C24.6022 8.85239 24.4126 8.66283 24.1647 8.66283L20.2272 8.72117C17.8063 8.76492 15.8814 10.7482 15.9251 13.1691L15.998 17.1795C16.0126 17.5878 15.6918 17.9087 15.2834 17.9233L13.5334 17.9524C13.2855 17.9524 13.0959 18.142 13.0959 18.3899L13.1397 21.1608C13.1397 21.4087 13.3292 21.5982 13.5772 21.5982L15.3272 21.5691C15.7355 21.5691 16.0563 21.8899 16.0709 22.2837L16.2021 30.5962C16.2167 31.4128 15.5605 32.0837 14.7438 32.0837H11.3897C6.08133 32.0837 2.91675 28.9191 2.91675 23.5961V11.3899C2.91675 6.08157 6.08133 2.91699 11.3897 2.91699H23.6105C28.9188 2.91699 32.0834 6.08157 32.0834 11.3899V23.6107Z" fill="white"/>
</svg>
