<svg width="35" height="35" viewBox="0 0 35 35" fill="none" xmlns="http://www.w3.org/2000/svg">
<path d="M23.6105 2.91699H11.3897C6.08133 2.91699 2.91675 6.08158 2.91675 11.3899V23.5962C2.91675 28.9191 6.08133 32.0837 11.3897 32.0837H23.5959C28.9042 32.0837 32.0688 28.9191 32.0688 23.6107V11.3899C32.0834 6.08158 28.9188 2.91699 23.6105 2.91699ZM17.5001 23.1587C14.3792 23.1587 11.8417 20.6212 11.8417 17.5003C11.8417 14.3795 14.3792 11.842 17.5001 11.842C20.6209 11.842 23.1584 14.3795 23.1584 17.5003C23.1584 20.6212 20.6209 23.1587 17.5001 23.1587ZM26.1334 10.0337C26.0605 10.2087 25.9584 10.3691 25.8272 10.5149C25.6813 10.6462 25.5209 10.7482 25.3459 10.8212C25.1709 10.8941 24.9813 10.9378 24.7917 10.9378C24.398 10.9378 24.0334 10.792 23.7563 10.5149C23.6251 10.3691 23.523 10.2087 23.4501 10.0337C23.3772 9.85866 23.3334 9.66908 23.3334 9.47949C23.3334 9.28991 23.3772 9.10033 23.4501 8.92532C23.523 8.73574 23.6251 8.58991 23.7563 8.44408C24.0917 8.10866 24.6022 7.94824 25.0688 8.05033C25.1709 8.06491 25.2584 8.09408 25.3459 8.13783C25.4334 8.16699 25.5209 8.21074 25.6084 8.26908C25.6813 8.31283 25.7542 8.38574 25.8272 8.44408C25.9584 8.58991 26.0605 8.73574 26.1334 8.92532C26.2063 9.10033 26.2501 9.28991 26.2501 9.47949C26.2501 9.66908 26.2063 9.85866 26.1334 10.0337Z" fill="white"/>
</svg>
