<svg width="35" height="35" viewBox="0 0 35 35" fill="none" xmlns="http://www.w3.org/2000/svg">
<path d="M32.0542 16.6396C31.5583 8.18124 23.8729 1.66251 15.0208 3.12084C8.92501 4.12709 4.0396 9.07081 3.09169 15.1666C2.53752 18.6958 3.26672 22.0354 4.8563 24.7917L3.55836 29.6187C3.2667 30.7125 4.27292 31.7041 5.35209 31.3979L10.1063 30.0854C12.2646 31.3542 14.7875 32.0833 17.4854 32.0833C25.7104 32.0833 32.5354 24.8354 32.0542 16.6396ZM24.6167 22.925C24.4854 23.1875 24.325 23.4354 24.1208 23.6687C23.7562 24.0625 23.3625 24.3542 22.925 24.5292C22.4875 24.7187 22.0063 24.8062 21.4958 24.8062C20.7521 24.8062 19.95 24.6313 19.1188 24.2667C18.2729 23.9021 17.4417 23.4208 16.6105 22.8229C15.7646 22.2104 14.9771 21.525 14.2188 20.7812C13.4604 20.0229 12.7896 19.2208 12.1771 18.3895C11.5792 17.5583 11.0979 16.7271 10.7479 15.8958C10.3979 15.0646 10.223 14.2625 10.223 13.5042C10.223 13.0083 10.3104 12.5271 10.4854 12.0896C10.6604 11.6375 10.9376 11.2292 11.3313 10.8646C11.798 10.3979 12.3084 10.1792 12.8479 10.1792C13.0521 10.1792 13.2562 10.2229 13.4458 10.3104C13.6354 10.3979 13.8104 10.5292 13.9417 10.7187L15.6333 13.1104C15.7646 13.3 15.8667 13.4604 15.925 13.6208C15.9979 13.7812 16.0271 13.9271 16.0271 14.0729C16.0271 14.2479 15.9688 14.4229 15.8667 14.5979C15.7646 14.7729 15.6333 14.9479 15.4583 15.1229L14.9042 15.7062C14.8167 15.7937 14.7875 15.8812 14.7875 15.9979C14.7875 16.0562 14.8021 16.1146 14.8167 16.1729C14.8458 16.2312 14.8605 16.275 14.875 16.3187C15.0063 16.5667 15.2396 16.8729 15.5604 17.252C15.8958 17.6312 16.2459 18.025 16.6251 18.4041C17.0188 18.7979 17.398 19.1479 17.7917 19.4833C18.1709 19.8041 18.4917 20.0229 18.7396 20.1542C18.7833 20.1687 18.8271 20.1979 18.8709 20.2125C18.9292 20.2416 18.9875 20.2417 19.0605 20.2417C19.1917 20.2417 19.2792 20.1979 19.3667 20.1104L19.9208 19.5562C20.1104 19.3667 20.2855 19.2354 20.4459 19.1479C20.6209 19.0458 20.7813 18.9875 20.9709 18.9875C21.1167 18.9875 21.2625 19.0166 21.4229 19.0896C21.5834 19.1625 21.7583 19.25 21.9333 19.3812L24.3542 21.1021C24.5438 21.2333 24.675 21.3937 24.7625 21.5687C24.8354 21.7583 24.8792 21.9333 24.8792 22.1375C24.7917 22.3854 24.7334 22.6625 24.6167 22.925Z" fill="white"/>
</svg>
