<svg width="73" height="73" viewBox="0 0 73 73" fill="none" xmlns="http://www.w3.org/2000/svg">
<path d="M49.2446 6.0835H23.7555C12.6838 6.0835 6.08337 12.6839 6.08337 23.7556V49.2143C6.08337 60.3164 12.6838 66.9168 23.7555 66.9168H49.2142C60.2859 66.9168 66.8863 60.3164 66.8863 49.2447V23.7556C66.9167 12.6839 60.3163 6.0835 49.2446 6.0835ZM52.4992 30.2952L45.473 39.3593C44.5909 40.4847 43.3438 41.2147 41.9142 41.3668C40.4846 41.5493 39.0855 41.1539 37.96 40.2718L32.3938 35.8918C32.1809 35.7093 31.9375 35.7093 31.8159 35.7397C31.6942 35.7397 31.4813 35.8006 31.2988 36.0439L24.0596 45.4427C23.6034 46.0206 22.9342 46.3247 22.265 46.3247C21.7784 46.3247 21.2917 46.1727 20.8659 45.8381C19.8621 45.0777 19.6796 43.6481 20.44 42.6443L27.6792 33.2456C28.5613 32.1202 29.8084 31.3902 31.238 31.2077C32.6371 31.0252 34.0667 31.4206 35.1921 32.3027L40.7584 36.6827C40.9713 36.8652 41.1842 36.8652 41.3363 36.8347C41.458 36.8347 41.6709 36.7739 41.8534 36.5306L48.8796 27.4664C49.64 26.4627 51.1 26.2802 52.0734 27.071C53.0771 27.8922 53.2596 29.3218 52.4992 30.2952Z" fill="white"/>
</svg>
