<svg width="73" height="73" viewBox="0 0 73 73" fill="none" xmlns="http://www.w3.org/2000/svg">
<path d="M49.2446 6.0835H23.7555C12.6838 6.0835 6.08337 12.6839 6.08337 23.7556V49.2143C6.08337 60.3164 12.6838 66.9168 23.7555 66.9168H49.2142C60.2859 66.9168 66.8863 60.3164 66.8863 49.2447V23.7556C66.9167 12.6839 60.3163 6.0835 49.2446 6.0835ZM31.9071 50.8568C30.873 51.891 29.5042 52.5906 27.8313 52.8035L23.725 53.2597C21.4742 53.5031 19.558 51.5868 19.8013 49.3056L20.2575 45.1689C20.653 41.4885 23.725 39.1464 26.9796 39.0856C27.2838 39.0552 27.6488 39.0856 27.9834 39.116C29.413 39.2985 30.7817 39.9677 31.9375 41.0931C33.063 42.2185 33.7017 43.5568 33.8842 44.9256C33.9146 45.2602 33.945 45.5947 33.945 45.8989C33.945 47.7847 33.2455 49.5185 31.9071 50.8568ZM53.0467 22.9647C50.8567 28.4397 45.838 35.6181 41.0625 40.3022C40.363 35.9831 36.9259 32.5764 32.5459 31.9681C37.23 27.1622 44.4692 22.0827 49.9746 19.8622C50.948 19.4972 51.9213 19.771 52.5296 20.3793C53.138 21.0485 53.4421 21.9914 53.0467 22.9647Z" fill="white"/>
</svg>
