<svg width="73" height="73" viewBox="0 0 73 73" fill="none" xmlns="http://www.w3.org/2000/svg">
<path d="M63.5404 39.5415V42.5832H60.8942C58.6433 42.5832 56.8183 44.4082 56.8183 46.6894V47.6019C56.8183 49.8832 54.9933 51.7082 52.7121 51.7082C50.4613 51.7082 48.6363 49.8832 48.6363 47.6019V46.6894C48.6363 44.4082 46.7808 42.5832 44.53 42.5832C42.2792 42.5832 40.4542 44.4082 40.4542 46.6894V47.6019C40.4542 49.8832 38.5988 51.7082 36.3479 51.7082C34.0971 51.7082 32.2417 49.8832 32.2417 47.6019V46.6894C32.2417 44.4082 30.4167 42.5832 28.1658 42.5832C25.915 42.5832 24.0596 44.4082 24.0596 46.6894V47.6019C24.0596 49.8832 22.2346 51.7082 19.9838 51.7082C17.7025 51.7082 15.8775 49.8832 15.8775 47.6019V46.6286C15.8775 44.3778 14.0829 42.5528 11.8625 42.5223H9.45959V39.5415C9.45959 35.344 12.6229 31.7853 16.9117 30.7511C17.7633 30.5382 18.6454 30.4165 19.5883 30.4165H53.4117C54.3546 30.4165 55.2367 30.5382 56.0883 30.7511C60.3771 31.7853 63.5404 35.344 63.5404 39.5415Z" fill="white"/>
<path d="M56.0883 21.8089V26.0977C55.2062 25.9152 54.3241 25.8543 53.4116 25.8543H19.5883C18.6758 25.8543 17.7937 25.9456 16.9116 26.1281V21.8089C16.9116 18.1589 20.1966 15.2085 24.2725 15.2085H48.7275C52.8033 15.2085 56.0883 18.1589 56.0883 21.8089Z" fill="white"/>
<path d="M26.6146 10.7979V15.2387H24.2725C23.4817 15.2387 22.7517 15.33 22.0521 15.5125V10.7979C22.0521 9.7333 23.0863 8.8208 24.3334 8.8208C25.5805 8.8208 26.6146 9.7333 26.6146 10.7979Z" fill="white"/>
<path d="M50.9479 10.1289V15.5127C50.2483 15.2997 49.5183 15.2085 48.7275 15.2085H46.3854V10.1289C46.3854 8.88182 47.4195 7.84766 48.6666 7.84766C49.9137 7.84766 50.9479 8.88182 50.9479 10.1289Z" fill="white"/>
<path d="M38.7812 8.57766V15.2085H34.2188V8.57766C34.2188 7.20891 35.2529 6.0835 36.5 6.0835C37.7471 6.0835 38.7812 7.20891 38.7812 8.57766Z" fill="white"/>
<path d="M66.9167 64.6354C66.9167 65.8825 65.8825 66.9166 64.6355 66.9166H8.36462C7.11754 66.9166 6.08337 65.8825 6.08337 64.6354C6.08337 63.3883 7.11754 62.3541 8.36462 62.3541H9.45962V47.085H11.315V47.2979C11.315 51.3737 13.9917 55.1454 17.9763 56.0275C21.0788 56.7575 24.0292 55.7537 26.0367 53.7766C27.1925 52.6208 29.0784 52.5904 30.2342 53.7462C31.8159 55.2975 33.9755 56.2708 36.348 56.2708C38.7205 56.2708 40.88 55.3279 42.4617 53.7462C43.6175 52.6208 45.473 52.6208 46.6592 53.7766C48.6363 55.7537 51.5867 56.7575 54.7196 56.0275C58.7042 55.1454 61.3809 51.3737 61.3809 47.2979V47.1458H63.5405V62.3541H64.6355C65.8825 62.3541 66.9167 63.3883 66.9167 64.6354Z" fill="white"/>
</svg>
