<svg width="73" height="73" viewBox="0 0 73 73" fill="none" xmlns="http://www.w3.org/2000/svg">
<path d="M57.1833 30.1431C53.7463 30.1431 50.6742 31.816 48.7579 34.371C46.8417 31.816 43.7696 30.1431 40.3325 30.1431C34.5229 30.1431 29.8083 34.8881 29.8083 40.7281C29.8083 42.9789 30.1733 45.0777 30.7817 46.9939C33.7625 56.4535 43.0092 62.1414 47.5717 63.6927C48.2104 63.9056 49.275 63.9056 49.9138 63.6927C54.4763 62.1414 63.7229 56.4839 66.7038 46.9939C67.3425 45.0472 67.6771 42.9789 67.6771 40.7281C67.7075 34.8881 62.9929 30.1431 57.1833 30.1431Z" fill="white"/>
<path d="M63.1146 25.3675C63.1146 26.0671 62.415 26.5234 61.7459 26.3409C57.6396 25.2763 53.138 26.1584 49.7313 28.5917C49.0621 29.0784 48.1496 29.0784 47.5109 28.5917C45.108 26.8275 42.188 25.8542 39.1159 25.8542C31.2684 25.8542 24.8809 32.2721 24.8809 40.1805C24.8809 48.758 28.9871 55.1759 33.1238 59.4646C33.3367 59.6775 33.1542 60.0425 32.8805 59.9209C24.5767 57.0921 6.08337 45.3513 6.08337 25.3675C6.08337 16.5467 13.1705 9.4292 21.9305 9.4292C27.1317 9.4292 31.7246 11.9234 34.6142 15.7863C37.5342 11.9234 42.1271 9.4292 47.298 9.4292C56.0275 9.4292 63.1146 16.5467 63.1146 25.3675Z" fill="white"/>
</svg>
