<svg width="73" height="73" viewBox="0 0 73 73" fill="none" xmlns="http://www.w3.org/2000/svg">
<path d="M56.1796 51.1914L57.3658 60.8031C57.67 63.3277 54.9629 65.0918 52.8033 63.7839L42.2791 57.5181C41.5491 57.0922 41.3666 56.1797 41.7621 55.4497C43.2829 52.6514 44.1041 49.4881 44.1041 46.3247C44.1041 35.1922 34.5533 26.1281 22.8125 26.1281C20.4096 26.1281 18.0675 26.4931 15.8775 27.2231C14.7521 27.5881 13.6571 26.5539 13.9308 25.3981C16.6987 14.3264 27.3446 6.0835 40.0587 6.0835C54.9021 6.0835 66.9166 17.3072 66.9166 31.1468C66.9166 39.3593 62.6887 46.6289 56.1796 51.1914Z" fill="white"/>
<path d="M39.5417 46.3246C39.5417 49.9442 38.2034 53.29 35.9525 55.9363C32.9413 59.5863 28.1659 61.9284 22.8125 61.9284L14.8738 66.6429C13.5355 67.4642 11.8321 66.3388 12.0146 64.7875L12.775 58.7954C8.69921 55.9667 6.08337 51.4346 6.08337 46.3246C6.08337 40.9713 8.94254 36.2567 13.3225 33.4583C16.0296 31.6942 19.2842 30.6904 22.8125 30.6904C32.0592 30.6904 39.5417 37.6863 39.5417 46.3246Z" fill="white"/>
</svg>
