<svg width="73" height="73" viewBox="0 0 73 73" fill="none" xmlns="http://www.w3.org/2000/svg">
<path d="M56.3924 12.5315L39.6633 6.26568C37.9295 5.62693 35.1008 5.62693 33.367 6.26568L16.6379 12.5315C13.4137 13.7482 10.7979 17.5198 10.7979 20.9569V45.5944C10.7979 48.0582 12.4099 51.3128 14.387 52.7728L31.1162 65.274C34.0666 67.4944 38.9029 67.4944 41.8533 65.274L58.5824 52.7728C60.5595 51.2824 62.1716 48.0582 62.1716 45.5944V20.9569C62.202 17.5198 59.5862 13.7482 56.3924 12.5315ZM47.0849 29.5649L34.0058 42.644C33.5495 43.1003 32.9716 43.3132 32.3937 43.3132C31.8158 43.3132 31.2379 43.1003 30.7816 42.644L25.9149 37.7165C25.0329 36.8344 25.0329 35.3744 25.9149 34.4924C26.797 33.6103 28.257 33.6103 29.1391 34.4924L32.4241 37.7774L43.8912 26.3103C44.7733 25.4282 46.2333 25.4282 47.1154 26.3103C47.9974 27.1923 47.9974 28.6828 47.0849 29.5649Z" fill="white"/>
</svg>
