<svg width="73" height="73" viewBox="0 0 73 73" fill="none" xmlns="http://www.w3.org/2000/svg">
<path d="M65.7912 44.5909L64.5441 50.2484C62.3846 59.9818 54.75 66.9168 43.7391 66.9168H29.2608C18.25 66.9168 10.6154 59.9818 8.45581 50.2484L7.20873 44.5909C6.6004 41.823 8.2429 38.6901 10.8891 37.6255L15.2083 35.8918L31.9679 29.1697C33.4279 28.5918 34.9791 28.2876 36.5 28.2876C38.0208 28.2876 39.5721 28.5918 41.0321 29.1697L57.7916 35.8918L62.1108 37.6255C64.7571 38.6901 66.3996 41.823 65.7912 44.5909Z" fill="white"/>
<path d="M57.7917 24.3335V28.7135C57.7917 29.7781 56.6967 30.5385 55.693 30.1127L42.705 24.9114C38.7205 23.3602 34.2796 23.3602 30.2646 24.9418L17.3071 30.1431C16.3034 30.5689 15.2084 29.8085 15.2084 28.7439V24.3335C15.2084 19.3147 19.3146 15.2085 24.3334 15.2085H48.6667C53.6855 15.2085 57.7917 19.3147 57.7917 24.3335Z" fill="white"/>
<path d="M44.1042 15.2085H28.8959V9.12516C28.8959 7.45225 30.2646 6.0835 31.9375 6.0835H41.0625C42.7355 6.0835 44.1042 7.45225 44.1042 9.12516V15.2085Z" fill="white"/>
</svg>
