<svg width="42" height="43" viewBox="0 0 42 43" fill="none" xmlns="http://www.w3.org/2000/svg">
<rect width="40.682" height="42.009" transform="translate(0.360596 0.0400391)" fill="white"/>
<path d="M15.6163 3.54102C11.1752 3.54102 7.5647 7.26931 7.5647 11.8553C7.5647 16.3538 10.9718 19.9945 15.4129 20.1521C15.5485 20.1346 15.6841 20.1346 15.7858 20.1521C15.8197 20.1521 15.8367 20.1521 15.8706 20.1521C15.8875 20.1521 15.8876 20.1521 15.9045 20.1521C20.2439 19.9945 23.651 16.3538 23.668 11.8553C23.668 7.26931 20.0575 3.54102 15.6163 3.54102Z" fill="black"/>
<path d="M24.2274 24.808C19.4981 21.5523 11.7855 21.5523 7.0223 24.808C4.86954 26.2958 3.68298 28.3087 3.68298 30.4617C3.68298 32.6147 4.86954 34.6101 7.00534 36.0804C9.37846 37.7258 12.4974 38.5484 15.6164 38.5484C18.7353 38.5484 21.8543 37.7258 24.2274 36.0804C26.3632 34.5926 27.5497 32.5972 27.5497 30.4267C27.5328 28.2737 26.3632 26.2783 24.2274 24.808Z" fill="black"/>
<path d="M34.2453 12.8879C34.5165 16.2836 32.1773 19.2593 28.9397 19.6619C28.9227 19.6619 28.9227 19.6619 28.9058 19.6619H28.8549C28.7532 19.6619 28.6515 19.6619 28.5668 19.6969C26.9225 19.7844 25.4139 19.2418 24.2782 18.2441C26.0241 16.6337 27.0242 14.2182 26.8208 11.5926C26.7022 10.1748 26.2275 8.87955 25.5156 7.77681C26.1597 7.44424 26.9056 7.2342 27.6684 7.16418C30.9907 6.86662 33.9571 9.42217 34.2453 12.8879Z" fill="black"/>
<path d="M37.6354 29.0787C37.4998 30.7765 36.4489 32.2469 34.686 33.2446C32.9909 34.2073 30.8551 34.6624 28.7362 34.6099C29.9567 33.4721 30.6686 32.0543 30.8042 30.549C30.9737 28.3785 29.9737 26.2956 27.9735 24.6327C26.8378 23.705 25.5156 22.9699 24.0748 22.4272C27.8209 21.307 32.5332 22.0597 35.4318 24.4752C36.9913 25.7705 37.788 27.3983 37.6354 29.0787Z" fill="black"/>
</svg>
