<svg width="50" height="50" viewBox="0 0 50 50" fill="none" xmlns="http://www.w3.org/2000/svg">
<path d="M42.1042 16.2917L26.0625 25.5833C25.4167 25.9583 24.6042 25.9583 23.9375 25.5833L7.89585 16.2917C6.75002 15.625 6.45835 14.0625 7.33335 13.0833C7.93752 12.3958 8.62502 11.8333 9.35419 11.4375L20.6459 5.1875C23.0625 3.83333 26.9792 3.83333 29.3959 5.1875L40.6875 11.4375C41.4167 11.8333 42.1042 12.4167 42.7084 13.0833C43.5417 14.0625 43.25 15.625 42.1042 16.2917Z" fill="#0D3A62"/>
<path d="M23.8125 29.4584V43.6667C23.8125 45.2501 22.2083 46.2917 20.7916 45.6042C16.5 43.5001 9.27081 39.5626 9.27081 39.5626C6.72915 38.1251 4.64581 34.5001 4.64581 31.5209V20.7709C4.64581 19.1251 6.37498 18.0834 7.79165 18.8959L22.7708 27.5834C23.3958 27.9792 23.8125 28.6876 23.8125 29.4584Z" fill="#0D3A62"/>
<path d="M26.1875 29.4584V43.6667C26.1875 45.2501 27.7917 46.2917 29.2083 45.6042C33.5 43.5001 40.7292 39.5626 40.7292 39.5626C43.2708 38.1251 45.3542 34.5001 45.3542 31.5209V20.7709C45.3542 19.1251 43.625 18.0834 42.2083 18.8959L27.2292 27.5834C26.6042 27.9792 26.1875 28.6876 26.1875 29.4584Z" fill="#0D3A62"/>
</svg>
