<svg width="50" height="50" viewBox="0 0 50 50" fill="none" xmlns="http://www.w3.org/2000/svg">
<path d="M28.6042 7.3125L32.2708 14.6458C32.7708 15.6667 34.1042 16.6458 35.2292 16.8333L41.875 17.9375C46.125 18.6458 47.125 21.7292 44.0625 24.7708L38.8958 29.9375C38.0208 30.8125 37.5417 32.5 37.8125 33.7083L39.2917 40.1042C40.4583 45.1667 37.7708 47.125 33.2917 44.4792L27.0625 40.7917C25.9375 40.125 24.0833 40.125 22.9375 40.7917L16.7083 44.4792C12.25 47.125 9.54166 45.1458 10.7083 40.1042L12.1875 33.7083C12.4583 32.5 11.9792 30.8125 11.1042 29.9375L5.93749 24.7708C2.89583 21.7292 3.87499 18.6458 8.12499 17.9375L14.7708 16.8333C15.875 16.6458 17.2083 15.6667 17.7083 14.6458L21.375 7.3125C23.375 3.33333 26.625 3.33333 28.6042 7.3125Z" fill="#0D3A62"/>
</svg>
