<svg width="50" height="50" viewBox="0 0 50 50" fill="none" xmlns="http://www.w3.org/2000/svg">
<path d="M44.9166 22.3752L42.0833 19.0835C41.5417 18.4585 41.1041 17.2918 41.1041 16.4585V12.9168C41.1041 10.7085 39.2916 8.896 37.0833 8.896H33.5416C32.7291 8.896 31.5416 8.4585 30.9166 7.91683L27.625 5.0835C26.1875 3.85433 23.8333 3.85433 22.375 5.0835L19.1041 7.93766C18.4791 8.4585 17.2916 8.896 16.4791 8.896H12.875C10.6666 8.896 8.85415 10.7085 8.85415 12.9168V16.4793C8.85415 17.2918 8.41665 18.4585 7.89581 19.0835L5.08331 22.396C3.87498 23.8335 3.87498 26.1668 5.08331 27.6043L7.89581 30.9168C8.41665 31.5418 8.85415 32.7085 8.85415 33.521V37.0835C8.85415 39.2918 10.6666 41.1043 12.875 41.1043H16.4791C17.2916 41.1043 18.4791 41.5418 19.1041 42.0835L22.3958 44.9168C23.8333 46.146 26.1875 46.146 27.6458 44.9168L30.9375 42.0835C31.5625 41.5418 32.7291 41.1043 33.5625 41.1043H37.1041C39.3125 41.1043 41.125 39.2918 41.125 37.0835V33.5418C41.125 32.7293 41.5625 31.5418 42.1041 30.9168L44.9375 27.6252C46.1458 26.1877 46.1458 23.8127 44.9166 22.3752ZM33.6666 21.0627L23.6041 31.1252C23.3125 31.4168 22.9166 31.5835 22.5 31.5835C22.0833 31.5835 21.6875 31.4168 21.3958 31.1252L16.3541 26.0835C15.75 25.4793 15.75 24.4793 16.3541 23.8752C16.9583 23.271 17.9583 23.271 18.5625 23.8752L22.5 27.8127L31.4583 18.8543C32.0625 18.2502 33.0625 18.2502 33.6666 18.8543C34.2708 19.4585 34.2708 20.4585 33.6666 21.0627Z" fill="#0D3A62"/>
</svg>
