<svg width="65" height="65" viewBox="0 0 65 65" fill="none" xmlns="http://www.w3.org/2000/svg">
<path d="M45.3646 9.6415V5.4165C45.3646 4.30609 44.4438 3.38525 43.3334 3.38525C42.223 3.38525 41.3021 4.30609 41.3021 5.4165V9.479H23.698V5.4165C23.698 4.30609 22.7771 3.38525 21.6667 3.38525C20.5563 3.38525 19.6355 4.30609 19.6355 5.4165V9.6415C12.323 10.3186 8.77505 14.679 8.23338 21.1519C8.17922 21.9373 8.82922 22.5873 9.58755 22.5873H55.4125C56.198 22.5873 56.848 21.9103 56.7667 21.1519C56.225 14.679 52.6771 10.3186 45.3646 9.6415Z" fill="#0D3A62"/>
<path d="M54.1667 26.6499H10.8333C9.34375 26.6499 8.125 27.8687 8.125 29.3582V46.0416C8.125 54.1666 12.1875 59.5832 21.6667 59.5832H43.3333C52.8125 59.5832 56.875 54.1666 56.875 46.0416V29.3582C56.875 27.8687 55.6562 26.6499 54.1667 26.6499ZM24.9437 49.3187C24.8083 49.427 24.6729 49.5624 24.5375 49.6437C24.375 49.752 24.2125 49.8332 24.05 49.8874C23.8875 49.9687 23.725 50.0228 23.5625 50.0499C23.3729 50.077 23.2104 50.1041 23.0208 50.1041C22.6687 50.1041 22.3167 50.0228 21.9917 49.8874C21.6396 49.752 21.3687 49.5624 21.0979 49.3187C20.6104 48.8041 20.3125 48.0999 20.3125 47.3957C20.3125 46.6916 20.6104 45.9874 21.0979 45.4728C21.3687 45.2291 21.6396 45.0395 21.9917 44.9041C22.4792 44.6874 23.0208 44.6332 23.5625 44.7416C23.725 44.7687 23.8875 44.8228 24.05 44.9041C24.2125 44.9582 24.375 45.0395 24.5375 45.1478C24.6729 45.2562 24.8083 45.3645 24.9437 45.4728C25.4312 45.9874 25.7292 46.6916 25.7292 47.3957C25.7292 48.0999 25.4312 48.8041 24.9437 49.3187ZM24.9437 39.8395C24.4292 40.327 23.725 40.6249 23.0208 40.6249C22.3167 40.6249 21.6125 40.327 21.0979 39.8395C20.6104 39.3249 20.3125 38.6207 20.3125 37.9166C20.3125 37.2124 20.6104 36.5082 21.0979 35.9937C21.8562 35.2353 23.0479 34.9916 24.05 35.4249C24.4021 35.5603 24.7 35.7499 24.9437 35.9937C25.4312 36.5082 25.7292 37.2124 25.7292 37.9166C25.7292 38.6207 25.4312 39.3249 24.9437 39.8395ZM34.4229 49.3187C33.9083 49.8062 33.2042 50.1041 32.5 50.1041C31.7958 50.1041 31.0917 49.8062 30.5771 49.3187C30.0896 48.8041 29.7917 48.0999 29.7917 47.3957C29.7917 46.6916 30.0896 45.9874 30.5771 45.4728C31.5792 44.4707 33.4208 44.4707 34.4229 45.4728C34.9104 45.9874 35.2083 46.6916 35.2083 47.3957C35.2083 48.0999 34.9104 48.8041 34.4229 49.3187ZM34.4229 39.8395C34.2875 39.9478 34.1521 40.0562 34.0167 40.1645C33.8542 40.2728 33.6917 40.3541 33.5292 40.4082C33.3667 40.4895 33.2042 40.5437 33.0417 40.5707C32.8521 40.5978 32.6896 40.6249 32.5 40.6249C31.7958 40.6249 31.0917 40.327 30.5771 39.8395C30.0896 39.3249 29.7917 38.6207 29.7917 37.9166C29.7917 37.2124 30.0896 36.5082 30.5771 35.9937C30.8208 35.7499 31.1187 35.5603 31.4708 35.4249C32.4729 34.9916 33.6646 35.2353 34.4229 35.9937C34.9104 36.5082 35.2083 37.2124 35.2083 37.9166C35.2083 38.6207 34.9104 39.3249 34.4229 39.8395ZM43.9021 49.3187C43.3875 49.8062 42.6833 50.1041 41.9792 50.1041C41.275 50.1041 40.5708 49.8062 40.0562 49.3187C39.5687 48.8041 39.2708 48.0999 39.2708 47.3957C39.2708 46.6916 39.5687 45.9874 40.0562 45.4728C41.0583 44.4707 42.9 44.4707 43.9021 45.4728C44.3896 45.9874 44.6875 46.6916 44.6875 47.3957C44.6875 48.0999 44.3896 48.8041 43.9021 49.3187ZM43.9021 39.8395C43.7667 39.9478 43.6312 40.0562 43.4958 40.1645C43.3333 40.2728 43.1708 40.3541 43.0083 40.4082C42.8458 40.4895 42.6833 40.5437 42.5208 40.5707C42.3312 40.5978 42.1417 40.6249 41.9792 40.6249C41.275 40.6249 40.5708 40.327 40.0562 39.8395C39.5687 39.3249 39.2708 38.6207 39.2708 37.9166C39.2708 37.2124 39.5687 36.5082 40.0562 35.9937C40.3271 35.7499 40.5979 35.5603 40.95 35.4249C41.4375 35.2082 41.9792 35.1541 42.5208 35.2624C42.6833 35.2895 42.8458 35.3437 43.0083 35.4249C43.1708 35.4791 43.3333 35.5603 43.4958 35.6687C43.6312 35.777 43.7667 35.8853 43.9021 35.9937C44.3896 36.5082 44.6875 37.2124 44.6875 37.9166C44.6875 38.6207 44.3896 39.3249 43.9021 39.8395Z" fill="#0D3A62"/>
</svg>
