<svg width="65" height="65" viewBox="0 0 65 65" fill="none" xmlns="http://www.w3.org/2000/svg">
<path d="M13.5417 40.625C10.9959 40.625 8.63962 41.5188 6.77087 43.0083C4.27921 44.9854 2.70837 48.0458 2.70837 51.4583C2.70837 53.4896 3.27712 55.4125 4.27921 57.0375C6.14796 60.1792 9.58754 62.2917 13.5417 62.2917C16.2771 62.2917 18.7688 61.2896 20.6646 59.5833C21.5042 58.8792 22.2355 58.0125 22.8042 57.0375C23.8063 55.4125 24.375 53.4896 24.375 51.4583C24.375 45.4729 19.5271 40.625 13.5417 40.625ZM19.148 50.2937L13.3792 55.6292C13 55.9813 12.4855 56.1708 11.998 56.1708C11.4834 56.1708 10.9688 55.9813 10.5625 55.575L7.88129 52.8938C7.09587 52.1083 7.09587 50.8083 7.88129 50.0229C8.66671 49.2375 9.96671 49.2375 10.7521 50.0229L12.0521 51.3229L16.3855 47.3146C17.198 46.5562 18.498 46.6104 19.2563 47.4229C20.0146 48.2354 19.9605 49.5354 19.148 50.2937Z" fill="#0D3A62"/>
<path d="M40.2188 10.6981V20.9897H36.1563V10.6981C36.1563 9.96683 35.5063 9.61475 35.073 9.61475C34.9375 9.61475 34.8021 9.64183 34.6667 9.696L13.1896 17.7939C11.7542 18.3356 10.8334 19.6897 10.8334 21.2335V23.0481C8.36879 24.8897 6.77087 27.8418 6.77087 31.1731V21.2335C6.77087 18.0106 8.74796 15.1397 11.7542 14.0022L33.2584 5.87725C33.8542 5.66058 34.4771 5.55225 35.073 5.55225C37.7813 5.55225 40.2188 7.746 40.2188 10.6981Z" fill="#0D3A62"/>
<path d="M58.2292 39.2707V41.979C58.2292 42.7103 57.6604 43.3061 56.9021 43.3332H52.9479C51.5125 43.3332 50.2125 42.2769 50.1042 40.8686C50.0229 40.029 50.3479 39.2436 50.8896 38.7019C51.3771 38.1873 52.0542 37.9165 52.7854 37.9165H56.875C57.6604 37.9436 58.2292 38.5394 58.2292 39.2707Z" fill="#0D3A62"/>
<path d="M52.7584 35.0731H55.5209C57.0105 35.0731 58.2292 33.8543 58.2292 32.3647V31.1731C58.2292 25.5668 53.6521 20.9897 48.0459 20.9897H16.9542C14.6521 20.9897 12.5396 21.7481 10.8334 23.0481C8.36879 24.8897 6.77087 27.8418 6.77087 31.1731V35.9939C6.77087 37.0231 7.85421 37.6731 8.82921 37.3481C10.3459 36.8335 11.9438 36.5627 13.5417 36.5627C21.748 36.5627 28.4375 43.2522 28.4375 51.4585C28.4375 53.4085 27.923 55.5481 27.1105 57.4439C26.6771 58.4189 27.3542 59.5835 28.4105 59.5835H48.0459C53.6521 59.5835 58.2292 55.0064 58.2292 49.4002V48.8856C58.2292 47.396 57.0105 46.1772 55.5209 46.1772H53.1646C50.5646 46.1772 48.073 44.5793 47.3959 42.0606C46.8542 40.0022 47.5042 37.9981 48.8584 36.6981C49.8605 35.6689 51.2417 35.0731 52.7584 35.0731ZM37.9167 34.5314H24.375C23.2646 34.5314 22.3438 33.6106 22.3438 32.5002C22.3438 31.3897 23.2646 30.4689 24.375 30.4689H37.9167C39.0271 30.4689 39.948 31.3897 39.948 32.5002C39.948 33.6106 39.0271 34.5314 37.9167 34.5314Z" fill="#0D3A62"/>
</svg>
