<svg width="73" height="73" viewBox="0 0 73 73" fill="none" xmlns="http://www.w3.org/2000/svg">
<path d="M53.3204 23.6339C53.1075 23.6035 52.8946 23.6035 52.6817 23.6339C47.9671 23.4818 44.2258 19.6189 44.2258 14.8739C44.2258 10.0377 48.1496 6.0835 53.0162 6.0835C57.8525 6.0835 61.8067 10.0072 61.8067 14.8739C61.7762 19.6189 58.035 23.4818 53.3204 23.6339Z" fill="#0D3A62"/>
<path d="M63.2363 44.7123C59.8296 46.9935 55.0542 47.8452 50.6438 47.2673C51.7996 44.7731 52.4079 42.0052 52.4384 39.0852C52.4384 36.0435 51.7692 33.1539 50.4917 30.6293C54.9934 30.021 59.7688 30.8727 63.2059 33.1539C68.0117 36.3173 68.0117 41.5185 63.2363 44.7123Z" fill="#0D3A62"/>
<path d="M19.5883 23.6339C19.8012 23.6035 20.0141 23.6035 20.227 23.6339C24.9416 23.4818 28.6829 19.6189 28.6829 14.8739C28.6829 10.0072 24.7591 6.0835 19.8924 6.0835C15.0562 6.0835 11.1324 10.0072 11.1324 14.8739C11.1324 19.6189 14.8737 23.4818 19.5883 23.6339Z" fill="#0D3A62"/>
<path d="M19.9229 39.0853C19.9229 42.0357 20.5617 44.834 21.7175 47.3586C17.4287 47.8148 12.9575 46.9023 9.67249 44.7428C4.86666 41.549 4.86666 36.3478 9.67249 33.154C12.9271 30.964 17.52 30.0819 21.8392 30.5686C20.5921 33.1236 19.9229 36.0132 19.9229 39.0853Z" fill="#0D3A62"/>
<path d="M36.865 48.2712C36.6216 48.2408 36.3479 48.2408 36.0741 48.2712C30.4775 48.0887 26.0062 43.4958 26.0062 37.8383C26.0366 32.0592 30.6904 27.375 36.5 27.375C42.2791 27.375 46.9633 32.0592 46.9633 37.8383C46.9329 43.4958 42.4921 48.0887 36.865 48.2712Z" fill="#0D3A62"/>
<path d="M26.9796 54.5673C22.3867 57.6394 22.3867 62.6885 26.9796 65.7302C32.2113 69.2281 40.7888 69.2281 46.0204 65.7302C50.6133 62.6581 50.6133 57.609 46.0204 54.5673C40.8192 51.0694 32.2417 51.0694 26.9796 54.5673Z" fill="#0D3A62"/>
</svg>
