<svg width="73" height="73" viewBox="0 0 73 73" fill="none" xmlns="http://www.w3.org/2000/svg">
<path d="M56.3926 12.5315L39.6634 6.26568C37.9296 5.62693 35.1009 5.62693 33.3671 6.26568L16.638 12.5315C13.4138 13.7482 10.798 17.5198 10.798 20.9569V45.5944C10.798 48.0582 12.4101 51.3128 14.3871 52.7728L31.1163 65.274C34.0667 67.4944 38.903 67.4944 41.8534 65.274L58.5826 52.7728C60.5596 51.2824 62.1717 48.0582 62.1717 45.5944V20.9569C62.2021 17.5198 59.5863 13.7482 56.3926 12.5315ZM47.0851 29.5649L34.0059 42.644C33.5496 43.1003 32.9717 43.3132 32.3938 43.3132C31.8159 43.3132 31.238 43.1003 30.7817 42.644L25.9151 37.7165C25.033 36.8344 25.033 35.3744 25.9151 34.4924C26.7971 33.6103 28.2571 33.6103 29.1392 34.4924L32.4242 37.7774L43.8913 26.3103C44.7734 25.4282 46.2334 25.4282 47.1155 26.3103C47.9976 27.1923 47.9976 28.6828 47.0851 29.5649Z" fill="#0D3A62"/>
</svg>
