<svg width="67" height="67" viewBox="0 0 67 67" fill="none" xmlns="http://www.w3.org/2000/svg">
<path d="M60.3848 40.9257L59.2402 46.1182C57.2581 55.0516 50.251 61.4166 40.1452 61.4166H26.8569C16.751 61.4166 9.74394 55.0516 7.76185 46.1182L6.61727 40.9257C6.05894 38.3853 7.56644 35.5099 9.99519 34.5328L13.9594 32.9416L29.3414 26.772C30.6814 26.2416 32.1052 25.9624 33.501 25.9624C34.8969 25.9624 36.3206 26.2416 37.6606 26.772L53.0427 32.9416L57.0069 34.5328C59.4356 35.5099 60.9431 38.3853 60.3848 40.9257Z" fill="#0D3A62"/>
<path d="M53.0427 22.3335V26.3535C53.0427 27.3306 52.0377 28.0285 51.1164 27.6377L39.196 22.8639C35.5389 21.4402 31.4631 21.4402 27.7781 22.8918L15.8856 27.6656C14.9644 28.0564 13.9594 27.3585 13.9594 26.3814V22.3335C13.9594 17.7272 17.7281 13.9585 22.3344 13.9585H44.6677C49.2739 13.9585 53.0427 17.7272 53.0427 22.3335Z" fill="#0D3A62"/>
<path d="M40.4802 13.9585H26.5219V8.37516C26.5219 6.83975 27.7781 5.5835 29.3135 5.5835H37.6885C39.2239 5.5835 40.4802 6.83975 40.4802 8.37516V13.9585Z" fill="#0D3A62"/>
</svg>
